<svg xmlns="http://www.w3.org/2000/svg" version="1.1" xmlns:xlink="http://www.w3.org/1999/xlink" width="512" height="512" x="0" y="0" viewBox="0 0 512 512" style="enable-background:new 0 0 512 512" xml:space="preserve" class=""><g><path fill="#56cb80" d="M512 256c0 114.707-75.441 211.79-179.41 244.348a254.779 254.779 0 0 1-25.297 6.511C290.723 510.234 273.566 512 256 512c-18.234 0-36.02-1.902-53.176-5.54a253.43 253.43 0 0 1-25.379-6.737c-42.234-13.594-79.675-37.88-109.152-69.653a257.115 257.115 0 0 1-21.68-26.75 252.414 252.414 0 0 1-10.992-16.98C12.988 348.16 0 303.594 0 256 0 114.613 114.613 0 256 0s256 114.613 256 256zm0 0" opacity="1" data-original="#39d365" class=""></path><path fill="#e29b0e" d="m131.805 227.266-2.227 7.117-46.82 149.523-.356 1.117-14.109 45.047a257.115 257.115 0 0 1-21.68-26.75 252.414 252.414 0 0 1-10.992-16.98l.27-.856 23.386-75.191 16.688-53.633zm0 0" opacity="1" data-original="#e29b0e" class=""></path><path fill="#f4ca19" d="m129.578 234.383-46.82 149.523-.356 1.117-14.109 45.047a257.115 257.115 0 0 1-21.68-26.75l6.52-20.972L76.52 307.16l16.683-53.637zm0 0" opacity="1" data-original="#f4ca19"></path><path fill="#e6e6e6" d="m442.52 277.566-26.797 85.536c-42.47-13.305-67.645-7.375-92.82-1.45l-.012.008c-25.176 5.926-50.352 11.856-92.805-1.457l-.016.008c-42.468-13.305-59.761-32.54-77.054-51.77-10.309-11.464-20.614-22.949-36.25-33.148-10.598-6.922-23.637-13.258-40.805-18.625l-.008-.012L156.36 0l.008.016c42.485 13.296 59.762 32.535 77.055 51.77 17.3 19.245 34.586 38.464 77.055 51.769 42.468 13.304 67.644 7.379 92.82 1.449 25.187-5.934 50.363-11.863 92.832 1.441l-26.805 85.559zm0 0" opacity="1" data-original="#e6e6e6"></path><g fill="#31474c"><path d="m469.332 192.004-26.8 85.535c-42.477-13.293-67.641-7.375-92.825-1.441l26.8-85.535c25.2-5.934 50.348-11.872 92.825 1.44zM349.707 276.117l-26.797 85.535-.02.02c-25.163 5.918-50.347 11.851-92.804-1.457l26.8-85.54c42.458 13.278 67.641 7.376 92.805 1.427h.016zM403.309 105.012l-26.801 85.55h-.016c-25.168 5.938-50.332 11.856-92.805-1.457l26.797-85.535v-.02c42.457 13.313 67.641 7.38 92.825 1.462zM283.688 189.125l-26.801 85.55-.02-.015c-42.457-13.293-59.746-32.523-77.039-51.734v-.035l26.8-85.536c17.29 19.247 34.602 38.458 77.04 51.77zM233.426 51.785v.016l-26.797 85.535c-17.293-19.227-34.586-38.477-77.059-51.785L156.367.016c42.492 13.293 59.77 32.539 77.059 51.77zM179.828 222.906v.02l-26.8 85.52c-10.325-11.466-20.614-22.946-36.255-33.145-10.593-6.934-23.636-13.258-40.804-18.625l-.016-.02 26.797-85.535h.02c42.472 13.313 59.75 32.524 77.058 51.785zm0 0" fill="#31474c" opacity="1" data-original="#31474c" class=""></path></g></g></svg>