<svg xmlns="http://www.w3.org/2000/svg" version="1.1" xmlns:xlink="http://www.w3.org/1999/xlink" width="512" height="512" x="0" y="0" viewBox="0 0 512 512" style="enable-background:new 0 0 512 512" xml:space="preserve" class=""><g><circle cx="256" cy="262.08" r="249.92" style="" fill="#56cb80" data-original="#f9aa2b" class="" opacity="1"></circle><path d="M55.652 411.501C101.222 472.505 173.998 512 256 512s154.778-39.495 200.348-100.499H55.652z" style="" fill="#298f4e" data-original="#ea9315" class="" opacity="1"></path><path d="M245.918 411.501H55.652c43.07 57.657 110.445 96.093 186.94 100.138-64.441-3.642-61.422-100.138 3.326-100.138z" style="" fill="#2fa158" data-original="#ea7e1c" class="" opacity="1"></path><path d="M374.55 91.625V54.858H130.012v36.768c0 57.819 40.135 106.258 94.065 118.991 7.96 1.879 13.64 8.894 13.64 17.073 0 8.071-5.603 15.004-13.461 16.847-54.02 12.668-94.244 61.15-94.244 119.033v36.768H374.55V363.57c0-57.963-40.335-106.498-94.466-119.085-7.731-1.798-13.238-8.629-13.238-16.566 0-8.313 5.776-15.43 13.862-17.355 53.817-12.815 93.842-61.199 93.842-118.939z" style="" fill="#e8e6e9" data-original="#e8e6e9" class=""></path><path d="M232.523 244.536c3.032-1.843 5.194-8.776 5.194-16.847 0-8.179-2.192-15.194-5.263-17.073-20.809-12.733-36.296-61.172-36.296-118.991V54.858h-66.146c.038 38.982-.073 36.01.082 41.092 1.944 55.897 41.404 102.252 93.983 114.667 7.96 1.879 13.64 8.894 13.64 17.073 0 8.071-5.603 15.004-13.461 16.847-52.666 12.351-92.213 58.745-94.162 114.702-.156 5.109-.045 2.783-.082 41.098h66.146v-36.768c0-57.883 15.521-106.364 36.365-119.033z" style="" fill="#d3d0d4" data-original="#d3d0d4" class=""></path><path d="M374.55 396.937v-18.803l-56.913-21.963a181.529 181.529 0 0 0-130.712 0l-56.913 21.963v18.803H374.55z" style="" fill="#fff6d4" data-original="#fff6d4" class=""></path><path d="M196.337 352.844c-8.704 2.82-8.491 3.072-66.325 25.29v18.803h66.146c.048-32.11-.116-35.296.179-44.093z" style="" fill="#ffe693" data-original="#ffe693" class=""></path><path d="M371.65 118.189zM132.912 118.189zM224.078 210.616c7.93 1.872 13.593 8.842 13.636 16.981v116.997c9.7-.781 19.447-.781 29.147.001V227.597c.148-8.173 5.867-15.133 13.849-17.034 45.314-10.789 80.844-46.799 90.942-92.375a413.325 413.325 0 0 1-238.738 0c10.113 45.652 45.744 81.704 91.164 92.428z" style="" fill="#fff6d4" data-original="#fff6d4" class=""></path><path d="m224.062 210.612.015.004c7.822 1.846 13.64 8.773 13.64 17.073 0-8.179-2.192-15.194-5.263-17.073-15.673-9.59-28.323-39.439-33.615-78.29a413.29 413.29 0 0 1-65.9-14.129c10.304 46.446 46.418 81.855 91.123 92.415zM237.717 227.689c0 .031-.004.062-.004.093v.148c.001-.081.004-.16.004-.241z" style="" fill="#ffe693" data-original="#ffe693" class=""></path><path d="M355.445 0H149.118c-10.551 0-19.105 8.554-19.105 19.105v13.423h244.538V19.105C374.551 8.554 365.997 0 355.445 0zM355.445 455.195H149.118c-10.551 0-19.105-8.554-19.105-19.105v-13.423h244.538v13.423c0 10.551-8.554 19.105-19.106 19.105z" style="" fill="#a87b69" data-original="#a87b69" class=""></path><path d="M203.376 436.089v-13.423h-73.364v13.423c0 10.552 8.554 19.105 19.105 19.105h73.364c-10.551 0-19.105-8.553-19.105-19.105zM220.861 0h-71.743c-10.551 0-19.105 8.554-19.105 19.105v13.423h71.743V19.105C201.756 8.554 210.31 0 220.861 0z" style="" fill="#8d6451" data-original="#8d6451" class=""></path><path d="M384.973 396.937H119.591c-8.044 0-14.564 6.52-14.564 14.564s6.52 14.564 14.564 14.564h265.382c8.044 0 14.564-6.52 14.564-14.564s-6.52-14.564-14.564-14.564z" style="" fill="#8d6451" data-original="#8d6451" class=""></path><path d="M178.39 411.501c0-8.044 6.52-14.564 14.564-14.564H119.59c-8.044 0-14.564 6.52-14.564 14.564s6.521 14.565 14.564 14.565h73.364c-8.044 0-14.564-6.521-14.564-14.565z" style="" fill="#825a4a" data-original="#825a4a" class=""></path><path d="M384.973 58.258H119.591c-8.044 0-14.564-6.52-14.564-14.564s6.52-14.564 14.564-14.564h265.382c8.044 0 14.564 6.52 14.564 14.564s-6.52 14.564-14.564 14.564z" style="" fill="#8d6451" data-original="#8d6451" class=""></path><path d="M176.769 43.693c0-8.044 6.521-14.564 14.564-14.564H119.59c-8.044 0-14.564 6.52-14.564 14.564s6.521 14.564 14.564 14.564h71.743c-8.043 0-14.564-6.52-14.564-14.564z" style="" fill="#825a4a" data-original="#825a4a" class=""></path><path d="M398.968 248.084c-57.998 0-105.014 47.016-105.014 105.014s47.016 105.014 105.014 105.014c4.421 0 8.778-.277 13.056-.807 42.554-34.055 73.726-81.727 86.917-136.419-13.599-42.238-53.214-72.802-99.973-72.802z" style="" fill="#5c515e" data-original="#5c515e" class=""></path><path d="M358.621 321.052c0-28.039 10.99-53.51 28.896-72.344-52.61 5.706-93.563 50.263-93.563 104.39 0 57.998 47.016 105.014 105.014 105.014 4.421 0 8.778-.277 13.056-.807a251.373 251.373 0 0 0 33.841-32.743c-49.534-8.444-87.244-51.57-87.244-103.51z" style="" fill="#4a404e" data-original="#4a404e" class=""></path><path d="M398.968 280.427c-40.135 0-72.671 32.536-72.671 72.671s32.536 72.671 72.671 72.671 72.671-32.536 72.671-72.671h-72.671v-72.671z" style="" fill="#e8e6e9" data-original="#e8e6e9" class=""></path><path d="M427.833 419.796c-40.369-14.638-69.212-53.32-69.212-98.744 0-10.904 1.669-21.417 4.754-31.305-22.125 12.458-37.077 36.151-37.077 63.351 0 40.135 32.536 72.671 72.671 72.671a72.425 72.425 0 0 0 28.864-5.973z" style="" fill="#d3d0d4" data-original="#d3d0d4" class=""></path><path d="M398.968 280.427v72.671h72.671c0-40.135-32.536-72.671-72.671-72.671z" style="" fill="#56cb80" data-original="#fd6874" class="" opacity="1"></path><path d="M398.968 370.924a9.14 9.14 0 0 1-9.139-9.139v-64.121a9.14 9.14 0 0 1 18.278 0v64.121a9.139 9.139 0 0 1-9.139 9.139z" style="" fill="#5c515e" data-original="#5c515e" class=""></path><path d="M433.799 362.237h-43.868a9.14 9.14 0 0 1 0-18.278h43.868a9.14 9.14 0 0 1 9.139 9.139c.001 5.047-4.091 9.139-9.139 9.139z" style="" fill="#5c515e" data-original="#5c515e" class=""></path></g></svg>